# xmcd CD database file
#
# Track frame offsets:
#	150
#	13900
#	29205
#	43740
#	62357
#	80045
#	96815
#	112115
#	129480
#	145192
#	163210
#	182655
#	200470
#	221735
#	238730
#	252907
#
# Disc length: 3615 seconds
#
# Revision: 0
# Processed by: cddbd v1.5PL3 Copyright (c) Steve Scherf et al.
# Submitted via: CDex 1.51
#
DISCID=f10e1d10
DTITLE=Godiego - The Best Collection
DYEAR=1986
DGENRE=JPop
TTITLE0=SALAD GIRL
TTITLE1=CHERRIES WERE MADE FOR EATING
TTITLE2=MIRAGE
TTITLE3=GANDHARA
TTITLE4=MONKEY MAGIC
TTITLE5=BEAUTIFUL NAME
TTITLE6=HAPPINESS
TTITLE7=WHERE'LL WE GO FROM NOW
TTITLE8=THE GALAXY EXPRESS 999
TTITLE9=HOLY AND BRIGHT
TTITLE10=RETURN TO AFRICA
TTITLE11=GOMING TOGETHER IN KATHMANDU
TTITLE12=PORTOPIA
TTITLE13=NAMASTE
TTITLE14=DOKI DOKI SUMMER GIRL
TTITLE15=CARRY LOVE
EXTD=YEAR: 1986
EXTT0=
EXTT1=
EXTT2=
EXTT3=
EXTT4=
EXTT5=
EXTT6=
EXTT7=
EXTT8=
EXTT9=
EXTT10=
EXTT11=
EXTT12=
EXTT13=
EXTT14=
EXTT15=
PLAYORDER=
